<svg width="20" height="20" viewBox="0 0 20 20" fill="none" xmlns="http://www.w3.org/2000/svg">
<path d="M10 20C15.5228 20 20 15.5228 20 10C20 4.47715 15.5228 0 10 0C4.47715 0 0 4.47715 0 10C0 15.5228 4.47715 20 10 20Z" fill="#90C12C"/>
<path d="M13.9063 6.25C13.2922 7.74219 12.1078 8.14844 10.625 8.28125C9.70316 10.9891 10.7219 13.9797 12.6563 15.9375C16.3875 14.1734 17.0719 8.90625 13.9063 6.25Z" fill="white"/>
<path d="M11.3172 7.07967C12.0118 6.78808 12.5918 6.27718 12.9688 5.62498C12.5611 5.40359 12.129 5.23055 11.6813 5.10935L12.55 4.04685C12.6245 3.95029 12.6584 3.82849 12.6446 3.70732C12.6308 3.58615 12.5702 3.47514 12.4759 3.39786C12.3815 3.32059 12.2608 3.28313 12.1392 3.29345C12.0177 3.30376 11.905 3.36103 11.825 3.4531L10.6453 4.89529C10.2169 4.83904 9.78306 4.83904 9.35469 4.89529L8.175 3.4531C8.1367 3.40346 8.08882 3.362 8.03421 3.33119C7.9796 3.30038 7.91936 3.28084 7.85707 3.27372C7.79477 3.2666 7.73167 3.27206 7.67152 3.28976C7.61137 3.30747 7.55538 3.33706 7.50687 3.37679C7.45836 3.41652 7.41831 3.46558 7.3891 3.52106C7.35989 3.57654 7.3421 3.63732 7.3368 3.6998C7.3315 3.76228 7.33878 3.82519 7.35823 3.8848C7.37767 3.94441 7.40888 3.99952 7.45 4.04685L8.31875 5.10935C7.87098 5.23055 7.43889 5.40359 7.03125 5.62498C7.45129 6.34234 8.1158 6.88428 8.90298 7.15146C9.69017 7.41863 10.5473 7.39315 11.3172 7.07967Z" fill="white"/>
<path d="M7.34379 7.8125C6.78761 7.42051 6.35414 6.87867 6.09379 6.25C5.93754 6.38594 3.68286 8.34219 4.06254 11.4062C4.44692 14.5078 7.16567 15.8531 7.34379 15.9375C9.27817 13.9797 10.2969 10.9891 9.37504 8.28125C9.05161 8.25312 8.04536 8.30313 7.34379 7.8125Z" fill="white"/>
</svg>
