<svg width="20" height="20" viewBox="0 0 20 20" fill="none" xmlns="http://www.w3.org/2000/svg">
<path d="M10 20C15.5228 20 20 15.5228 20 10C20 4.47715 15.5228 0 10 0C4.47715 0 0 4.47715 0 10C0 15.5228 4.47715 20 10 20Z" fill="#5A5366"/>
<path d="M15.0234 10C15.0237 10.7841 14.8366 11.557 14.4777 12.2542C14.1187 12.9513 13.5983 13.5526 12.9599 14.0079C12.3215 14.4631 11.5835 14.7592 10.8074 14.8715C10.0314 14.9837 9.2397 14.9089 8.49844 14.6531C9.46692 14.3192 10.3071 13.6915 10.9018 12.8574C11.4965 12.0233 11.8162 11.0244 11.8162 10C11.8162 8.97559 11.4965 7.9767 10.9018 7.1426C10.3071 6.3085 9.46692 5.68075 8.49844 5.34688C9.2397 5.09114 10.0314 5.01627 10.8074 5.12851C11.5835 5.24076 12.3215 5.53685 12.9599 5.99213C13.5983 6.44741 14.1187 7.04869 14.4777 7.74585C14.8366 8.44301 15.0237 9.21586 15.0234 10ZM10 3.75C8.76387 3.75 7.5555 4.11656 6.52769 4.80331C5.49988 5.49007 4.6988 6.46619 4.22576 7.60823C3.75271 8.75027 3.62894 10.0069 3.87009 11.2193C4.11125 12.4317 4.70651 13.5453 5.58059 14.4194C6.45466 15.2935 7.56831 15.8888 8.78069 16.1299C9.99307 16.3711 11.2497 16.2473 12.3918 15.7742C13.5338 15.3012 14.5099 14.5001 15.1967 13.4723C15.8834 12.4445 16.25 11.2361 16.25 10C16.25 8.3424 15.5915 6.75269 14.4194 5.58058C13.2473 4.40848 11.6576 3.75 10 3.75Z" fill="white"/>
</svg>
