<svg width="20" height="20" viewBox="0 0 20 20" fill="none" xmlns="http://www.w3.org/2000/svg">
<path d="M10 20C15.5228 20 20 15.5228 20 10C20 4.47715 15.5228 0 10 0C4.47715 0 0 4.47715 0 10C0 15.5228 4.47715 20 10 20Z" fill="#FF9C54"/>
<path d="M13.3844 6.65781C14.9875 7.79687 15.9203 9.90312 15.2125 11.8141C14.5469 13.6156 12.6859 14.7422 10.8109 14.7953C11.1475 14.6764 11.4499 14.4769 11.6917 14.2143C11.9335 13.9516 12.1073 13.6338 12.198 13.2885C12.2887 12.9433 12.2935 12.581 12.2121 12.2335C12.1306 11.8859 11.9653 11.5636 11.7306 11.2946C11.4959 11.0256 11.1989 10.8181 10.8656 10.6903C10.5323 10.5625 10.1728 10.5181 9.81838 10.5612C9.464 10.6043 9.12555 10.7334 8.83256 10.9374C8.53957 11.1413 8.30094 11.4139 8.13751 11.7312C7.35626 13.2312 8.59063 14.7266 9.93751 15.325C11.4641 16.0062 13.2281 15.5031 14.4531 14.45C12.3438 17.3437 8.07344 17.8578 5.72969 14.9703C4.13594 13.0062 4.09844 10.1266 5.54688 8.04687C5.19844 9.17343 5.46876 10.3125 6.40626 10.9375C5.46876 9.0625 6.09376 7.64218 7.36563 6.38437C7.97813 5.77812 8.75782 5.54687 9.39688 5.01718C10.1 4.43593 10.1922 3.47031 10.0578 2.62187C10.6131 2.91252 11.0714 3.35886 11.3767 3.90617C11.682 4.45349 11.821 5.07799 11.7766 5.70312C10 5.71093 9.34844 8.18281 10.9141 9.0625C12.4391 9.925 14.2094 8.20937 13.3844 6.65781Z" fill="white"/>
</svg>
