<svg width="20" height="20" viewBox="0 0 20 20" fill="none" xmlns="http://www.w3.org/2000/svg">
<path d="M10 20C15.5228 20 20 15.5228 20 10C20 4.47715 15.5228 0 10 0C4.47715 0 0 4.47715 0 10C0 15.5228 4.47715 20 10 20Z" fill="#92AADE"/>
<path d="M15.3125 11.8875C14.6547 13 13.8328 13.4813 12.7734 13.6063C12.5156 13.6344 12.2516 13.6063 11.9922 13.6453C11.8062 13.6688 11.6797 13.8688 11.8359 13.9578C12.5953 14.375 11.9078 14.5719 11.7 14.7391C10.9115 15.3554 9.94907 15.708 8.94905 15.7469C7.94903 15.7859 6.96209 15.5093 6.12801 14.9562C5.29393 14.4032 4.65499 13.6017 4.30167 12.6654C3.94835 11.729 3.89857 10.7053 4.15937 9.73906C4.41101 8.77312 4.96315 7.91215 5.73607 7.2805C6.50898 6.64886 7.46266 6.27923 8.45937 6.225C9.75625 6.16719 11.0594 6.17344 12.3656 6.20938C14.0359 6.25 15.5656 5.9375 16.7922 4.57969C17.0187 4.95625 16.9234 5.2875 16.8687 5.59375C16.672 6.69136 16.0998 7.68641 15.25 8.40846C14.4003 9.1305 13.3259 9.53461 12.2109 9.55156C11.7422 9.5625 11.2734 9.55156 10.8047 9.56406C10.6484 9.56406 10.4703 9.6 10.4687 9.79844C10.4687 9.95469 10.625 9.99844 10.7547 9.99063C12.4734 9.90469 14.2609 10.3719 15.8234 9.25C15.9375 9.16719 16.0734 9.00469 16.2219 9.17188C16.3437 9.30781 16.2547 9.46719 16.1781 9.60313C15.4844 10.8422 14.4516 11.5891 13.0187 11.7188C12.6062 11.7563 12.1875 11.7188 11.7687 11.7422C11.5281 11.7547 11.1219 11.6297 11.1094 11.9531C11.0953 12.325 11.5094 12.175 11.7344 12.1719C12.8687 12.1594 14.0109 12.3156 15.3125 11.8875Z" fill="#FDFDFE"/>
</svg>
