<svg width="20" height="20" viewBox="0 0 20 20" fill="none" xmlns="http://www.w3.org/2000/svg">
<path d="M10 20C15.5228 20 20 15.5228 20 10C20 4.47715 15.5228 0 10 0C4.47715 0 0 4.47715 0 10C0 15.5228 4.47715 20 10 20Z" fill="#63BB5B"/>
<path d="M15.5874 4.12031C15.164 3.74843 13.4718 4.15624 12.9906 4.21406C11.3953 4.38866 9.82366 4.73548 8.30307 5.24843C6.73276 5.80312 5.45151 6.60312 4.70932 8.15468C4.25737 9.12356 4.08223 10.1986 4.20329 11.2608C4.32435 12.323 4.73689 13.3311 5.39526 14.1734C5.73745 13.8094 6.22807 13.4422 6.49838 13.0234C6.85932 12.4656 6.66245 11.3516 6.68901 10.6516C6.69682 10.4453 6.77338 7.59062 6.91245 7.58124C7.0812 7.57031 7.51713 10.3719 7.67338 11.4156C7.67923 11.4489 7.69394 11.4799 7.71596 11.5055C7.73798 11.5311 7.76649 11.5502 7.79849 11.5609C7.83049 11.5716 7.86479 11.5735 7.89777 11.5664C7.93076 11.5592 7.9612 11.5433 7.98588 11.5203C8.35776 11.1526 8.7312 10.788 9.1062 10.4266C9.36245 10.1781 9.49057 10.0812 9.55932 9.75781C9.62807 9.43437 9.57651 8.99374 9.59838 8.65156C9.61088 8.44843 9.75463 5.87656 9.93901 5.86406C10.1234 5.85156 10.5093 7.86874 10.6531 8.62343C10.66 8.64875 10.6732 8.67192 10.6914 8.69079C10.7097 8.70967 10.7324 8.72364 10.7574 8.73143C10.7825 8.73921 10.8091 8.74056 10.8349 8.73534C10.8606 8.73012 10.8846 8.7185 10.9046 8.70156C11.664 7.96562 14.0296 5.66562 14.1406 5.76874C14.2515 5.87187 12.2874 8.51249 11.6578 9.36249C11.6436 9.38462 11.6353 9.40997 11.6335 9.43618C11.6317 9.46239 11.6366 9.48862 11.6477 9.51245C11.6587 9.53628 11.6756 9.55694 11.6968 9.57251C11.7179 9.58809 11.7427 9.59808 11.7687 9.60156C12.5359 9.64374 14.5812 9.77656 14.5984 9.94531C14.6156 10.1141 12.064 10.6141 11.8796 10.65C11.5671 10.7141 11.2187 10.7359 10.9062 10.8172C10.5062 10.9219 10.4374 11.0203 10.1859 11.3703C9.87339 11.787 9.56088 12.2036 9.24838 12.6203C9.22735 12.6481 9.21441 12.6812 9.21098 12.7158C9.20756 12.7505 9.21379 12.7855 9.22899 12.8168C9.24419 12.8482 9.26776 12.8748 9.2971 12.8936C9.32644 12.9124 9.36041 12.9227 9.39526 12.9234C10.4515 12.9406 13.2843 13.0047 13.3015 13.1734C13.3093 13.3141 10.489 13.7641 10.2859 13.7984C9.64057 13.9094 8.54995 13.8656 8.03276 14.2062C7.63432 14.4687 7.26713 15.1719 6.96401 15.5437C7.8553 16.0697 8.87129 16.3471 9.9062 16.3471C10.9411 16.3471 11.9571 16.0697 12.8484 15.5437C14.3484 14.6484 15.0359 13.2875 15.4015 11.6375C15.7306 10.0379 15.8774 8.40611 15.839 6.77343C15.839 6.17968 15.8171 5.58437 15.7578 4.99374C15.7343 4.79531 15.7546 4.26718 15.5874 4.12031Z" fill="white"/>
</svg>
