<svg width="20" height="20" viewBox="0 0 20 20" fill="none" xmlns="http://www.w3.org/2000/svg">
<path d="M10 20C15.5228 20 20 15.5228 20 10C20 4.47715 15.5228 0 10 0C4.47715 0 0 4.47715 0 10C0 15.5228 4.47715 20 10 20Z" fill="#9099A1"/>
<path d="M10 16.25C8.76387 16.25 7.5555 15.8834 6.52769 15.1967C5.49988 14.5099 4.6988 13.5338 4.22576 12.3918C3.75271 11.2497 3.62894 9.99307 3.87009 8.78069C4.11125 7.56831 4.70651 6.45466 5.58059 5.58059C6.45466 4.70651 7.56831 4.11125 8.78069 3.87009C9.99307 3.62894 11.2497 3.75271 12.3918 4.22576C13.5338 4.6988 14.5099 5.49988 15.1967 6.52769C15.8834 7.5555 16.25 8.76387 16.25 10C16.25 11.6576 15.5915 13.2473 14.4194 14.4194C13.2473 15.5915 11.6576 16.25 10 16.25ZM10 6.25C9.25832 6.25 8.5333 6.46994 7.91661 6.88199C7.29993 7.29405 6.81928 7.87972 6.53545 8.56494C6.25163 9.25016 6.17736 10.0042 6.32206 10.7316C6.46675 11.459 6.82391 12.1272 7.34835 12.6517C7.8728 13.1761 8.54099 13.5333 9.26841 13.6779C9.99584 13.8226 10.7498 13.7484 11.4351 13.4646C12.1203 13.1807 12.706 12.7001 13.118 12.0834C13.5301 11.4667 13.75 10.7417 13.75 10C13.75 9.00544 13.3549 8.05161 12.6517 7.34835C11.9484 6.64509 10.9946 6.25 10 6.25Z" fill="white"/>
</svg>
