<svg width="20" height="20" viewBox="0 0 20 20" fill="none" xmlns="http://www.w3.org/2000/svg">
<path d="M10 20C15.5228 20 20 15.5228 20 10C20 4.47715 15.5228 0 10 0C4.47715 0 0 4.47715 0 10C0 15.5228 4.47715 20 10 20Z" fill="#AB6AC8"/>
<path d="M16.25 9.21874C16.25 6.34218 13.4516 4.01093 10 4.01093C6.54844 4.01093 3.75 6.34218 3.75 9.21874C3.75 10.7812 4.58281 12.1875 5.89844 13.1469C5.71697 13.4748 5.62281 13.8439 5.625 14.2187C5.625 15.2547 6.30156 16.0937 7.13594 16.0937C7.78594 16.0937 8.33906 15.5828 8.55313 14.8687C8.73906 15.5766 9.31562 16.0937 10 16.0937C10.6844 16.0937 11.2609 15.5766 11.4469 14.8687C11.6609 15.5828 12.2141 16.0937 12.8641 16.0937C13.6984 16.0937 14.375 15.2547 14.375 14.2187C14.3772 13.8439 14.283 13.4748 14.1016 13.1469C15.4172 12.1875 16.25 10.7812 16.25 9.21874ZM10 12.3953C7.7125 12.3953 5.78125 10.9375 5.78125 9.21874C5.78125 7.49999 7.7125 6.04217 10 6.04217C12.2875 6.04217 14.2188 7.49999 14.2188 9.21874C14.2188 10.9375 12.2875 12.3953 10 12.3953Z" fill="white"/>
</svg>
