<svg width="20" height="20" viewBox="0 0 20 20" fill="none" xmlns="http://www.w3.org/2000/svg">
<path d="M10 20C15.5228 20 20 15.5228 20 10C20 4.47715 15.5228 0 10 0C4.47715 0 0 4.47715 0 10C0 15.5228 4.47715 20 10 20Z" fill="#5A8EA1"/>
<path d="M13.125 10C13.125 10.6181 12.9417 11.2223 12.5983 11.7362C12.255 12.2501 11.7669 12.6506 11.1959 12.8871C10.6249 13.1237 9.99653 13.1855 9.39034 13.065C8.78415 12.9444 8.22733 12.6468 7.79029 12.2097C7.35325 11.7727 7.05562 11.2159 6.93505 10.6097C6.81447 10.0035 6.87635 9.37515 7.11288 8.80413C7.3494 8.23311 7.74994 7.74505 8.26384 7.40167C8.77775 7.05829 9.38193 6.87501 10 6.87501C10.8288 6.87501 11.6237 7.20425 12.2097 7.7903C12.7958 8.37635 13.125 9.17121 13.125 10ZM13.3984 4.11407H6.60156L3.20312 10L6.60156 15.8859H13.3984L16.7969 10L13.3984 4.11407Z" fill="white"/>
</svg>
