<svg width="20" height="20" viewBox="0 0 20 20" fill="none" xmlns="http://www.w3.org/2000/svg">
<path d="M10 20C15.5228 20 20 15.5228 20 10C20 4.47715 15.5228 0 10 0C4.47715 0 0 4.47715 0 10C0 15.5228 4.47715 20 10 20Z" fill="#096DC4"/>
<path d="M15.764 8.98279C15.5059 7.69863 14.8238 6.53842 13.8273 5.68836C12.8307 4.83831 11.5775 4.3477 10.2687 4.29529C10.5074 3.63702 10.4952 2.91385 10.2343 2.26404C9.92847 2.95343 9.47511 3.56734 8.9062 4.06248C8.66377 4.2913 8.38763 4.48154 8.08745 4.62654C7.78986 4.74119 7.49879 4.87211 7.21558 5.01873C6.11283 5.63273 5.23646 6.58469 4.71558 7.73435C4.41549 8.3994 4.24322 9.11497 4.20776 9.84373C4.85306 9.64182 5.51066 9.48159 6.17651 9.36404C6.76714 9.26091 7.36558 9.20779 7.95933 9.1281C9.05308 8.97185 9.91401 8.33748 10.5171 7.40935C11.2796 7.65459 11.9178 8.18484 12.2986 8.8894C12.6794 9.59397 12.7734 10.4184 12.5609 11.1906C12.3484 11.9628 11.8458 12.623 11.1582 13.0335C10.4705 13.4441 9.65081 13.5731 8.87026 13.3937C9.17115 14.0693 9.64623 14.6528 10.2468 15.0844C10.5526 15.3035 10.8869 15.4796 11.2406 15.6078C11.3973 15.6851 11.5705 15.7232 11.7453 15.7187C11.9473 15.6697 12.1433 15.5984 12.3296 15.5062C13.5661 14.98 14.5833 14.0434 15.2095 12.8545C15.8357 11.6655 16.0327 10.297 15.7671 8.97966L15.764 8.98279ZM6.37651 7.03123C6.5459 6.86249 6.75175 6.73489 6.97821 6.65822C7.20468 6.58156 7.44571 6.55789 7.68276 6.58904C7.71082 6.82513 7.685 7.06451 7.60726 7.2892C7.52952 7.51388 7.40187 7.71803 7.2339 7.88629C7.06593 8.05456 6.86202 8.18258 6.63747 8.26072C6.41293 8.33887 6.17359 8.36511 5.93745 8.33748C5.90591 8.10067 5.92908 7.85978 6.0052 7.63333C6.08131 7.40688 6.20834 7.2009 6.37651 7.03123ZM9.43901 15.9469C8.21992 15.8206 7.07139 15.3142 6.15588 14.4994C5.24037 13.6845 4.60423 12.6025 4.33745 11.4062C5.60857 10.714 7.0389 10.3671 8.48589 10.4C7.99234 11.1501 7.75952 12.0418 7.82339 12.9375C7.86245 13.5253 8.02683 14.098 8.30549 14.617C8.58415 15.1361 8.97064 15.5895 9.43901 15.9469Z" fill="white"/>
</svg>
