<svg width="20" height="20" viewBox="0 0 20 20" fill="none" xmlns="http://www.w3.org/2000/svg">
<path d="M10 20C15.5228 20 20 15.5228 20 10C20 4.47715 15.5228 0 10 0C4.47715 0 0 4.47715 0 10C0 15.5228 4.47715 20 10 20Z" fill="#EC8FE6"/>
<path d="M17.3438 10L13.4375 7.86563L13.9781 6.01719L12.1344 6.5625L10 2.65625L7.86563 6.5625L6.01719 6.01719L6.5625 7.86563L2.65625 10L6.5625 12.1344L6.01719 13.9828L7.86563 13.4375L10 17.3438L12.1344 13.4375L13.9828 13.9781L13.4375 12.1344L17.3438 10ZM11.05 11.05L10 12.9688L8.95 11.05L7.03125 10L8.95 8.95L10 7.03125L11.05 8.95L12.9688 10L11.05 11.05Z" fill="white"/>
</svg>
