<svg width="20" height="20" viewBox="0 0 20 20" fill="none" xmlns="http://www.w3.org/2000/svg">
<path d="M10 20C15.5228 20 20 15.5228 20 10C20 4.47715 15.5228 0 10 0C4.47715 0 0 4.47715 0 10C0 15.5228 4.47715 20 10 20Z" fill="#CE4069"/>
<path d="M3.58278 12.6781L4.36403 14.5828C4.42136 14.7235 4.52582 14.8398 4.65951 14.9119C4.79321 14.984 4.94781 15.0074 5.09683 14.978C5.24586 14.9487 5.38004 14.8684 5.47639 14.751C5.57274 14.6336 5.62527 14.4863 5.62496 14.3344V8.79064C5.62527 8.63874 5.57274 8.49147 5.47639 8.37405C5.38004 8.25662 5.24586 8.17636 5.09683 8.14699C4.94781 8.11763 4.79321 8.141 4.65951 8.2131C4.52582 8.2852 4.42136 8.40154 4.36403 8.5422L3.58278 10.4469C3.28898 11.1616 3.28898 11.9634 3.58278 12.6781Z" fill="white"/>
<path d="M15.8594 14.2578V6.05469C15.8594 5.83713 15.7729 5.62848 15.6191 5.47464C15.4653 5.3208 15.2566 5.23438 15.0391 5.23438H14.6484C14.4309 5.23438 14.2222 5.3208 14.0684 5.47464C13.9146 5.62848 13.8281 5.83713 13.8281 6.05469V8.72344C13.8281 8.79264 13.8006 8.85901 13.7517 8.90795C13.7028 8.95688 13.6364 8.98438 13.5672 8.98438C13.533 8.98438 13.4991 8.97762 13.4676 8.96448C13.436 8.95135 13.4073 8.9321 13.3832 8.90785C13.3591 8.8836 13.34 8.85483 13.3271 8.82318C13.3142 8.79153 13.3076 8.75763 13.3078 8.72344V6.05469C13.3078 5.83713 13.2214 5.62848 13.0675 5.47464C12.9137 5.3208 12.7051 5.23438 12.4875 5.23438H12.0969C11.8793 5.23438 11.6707 5.3208 11.5168 5.47464C11.363 5.62848 11.2766 5.83713 11.2766 6.05469V8.72344C11.2766 8.79264 11.2491 8.85901 11.2001 8.90795C11.1512 8.95688 11.0848 8.98438 11.0156 8.98438C10.9464 8.98438 10.88 8.95688 10.8311 8.90795C10.7822 8.85901 10.7547 8.79264 10.7547 8.72344V6.05469C10.7547 5.83713 10.6683 5.62848 10.5144 5.47464C10.3606 5.3208 10.1519 5.23438 9.93438 5.23438H9.54375C9.32619 5.23438 9.11754 5.3208 8.9637 5.47464C8.80986 5.62848 8.72344 5.83713 8.72344 6.05469V8.72344C8.72364 8.75763 8.71709 8.79153 8.70414 8.82318C8.6912 8.85483 8.67213 8.8836 8.64802 8.90785C8.62392 8.9321 8.59525 8.95135 8.56368 8.96448C8.53211 8.97762 8.49826 8.98438 8.46406 8.98438C8.39486 8.98438 8.32849 8.95688 8.27955 8.90795C8.23062 8.85901 8.20312 8.79264 8.20312 8.72344V6.05469C8.20312 5.83713 8.1167 5.62848 7.96286 5.47464C7.80902 5.3208 7.60037 5.23438 7.38281 5.23438H6.99219C6.77463 5.23438 6.56598 5.3208 6.41214 5.47464C6.2583 5.62848 6.17188 5.83713 6.17188 6.05469V14.2578C6.17188 14.4754 6.2583 14.684 6.41214 14.8379C6.56598 14.9917 6.77463 15.0781 6.99219 15.0781H15.0391C15.2566 15.0781 15.4653 14.9917 15.6191 14.8379C15.7729 14.684 15.8594 14.4754 15.8594 14.2578Z" fill="white"/>
</svg>
