<svg width="20" height="20" viewBox="0 0 20 20" fill="none" xmlns="http://www.w3.org/2000/svg">
<path d="M10 20C15.5228 20 20 15.5228 20 10C20 4.47715 15.5228 0 10 0C4.47715 0 0 4.47715 0 10C0 15.5228 4.47715 20 10 20Z" fill="#5269AC"/>
<path d="M15.664 9.84372C15.664 4.6484 9.2187 1.90622 5.4687 5.5109C1.6937 9.1484 4.29057 15.6968 9.5312 15.8562C12.2656 15.8562 13.5218 15.6265 15.4562 15.1312C14.8717 14.892 14.3315 14.5566 13.8578 14.139C14.4302 13.5798 14.8849 12.9117 15.1951 12.174C15.5053 11.4363 15.6648 10.644 15.664 9.84372ZM7.22651 10.3125C6.87979 10.3118 6.54485 10.1865 6.28281 9.95948C6.02077 9.73243 5.84908 9.41874 5.79906 9.07565C5.74904 8.73255 5.82404 8.3829 6.01036 8.09049C6.19668 7.79808 6.48191 7.5824 6.81401 7.48278C6.80351 7.55315 6.79776 7.62414 6.79683 7.69528C6.7963 7.9205 6.84853 8.14271 6.94932 8.34411C7.05012 8.54552 7.19669 8.72051 7.37728 8.85508C7.55787 8.98966 7.76747 9.08006 7.98929 9.11906C8.21111 9.15806 8.43897 9.14456 8.65464 9.07965C8.60373 9.42214 8.43157 9.73496 8.16947 9.96122C7.90737 10.1875 7.57276 10.3121 7.22651 10.3125ZM12.0531 10.3125C11.7067 10.3124 11.372 10.1879 11.1098 9.9616C10.8476 9.73528 10.6756 9.42227 10.625 9.07965C10.8406 9.14456 11.0685 9.15806 11.2903 9.11906C11.5121 9.08006 11.7217 8.98966 11.9023 8.85508C12.0829 8.72051 12.2295 8.54552 12.3303 8.34411C12.4311 8.14271 12.4833 7.9205 12.4828 7.69528C12.4818 7.62414 12.4761 7.55315 12.4656 7.48278C12.7977 7.5824 13.0829 7.79808 13.2692 8.09049C13.4556 8.3829 13.5305 8.73255 13.4805 9.07565C13.4305 9.41874 13.2588 9.73243 12.9968 9.95948C12.7347 10.1865 12.3998 10.3118 12.0531 10.3125Z" fill="white"/>
</svg>
