<svg width="20" height="20" viewBox="0 0 20 20" fill="none" xmlns="http://www.w3.org/2000/svg">
<path d="M10 20C15.5228 20 20 15.5228 20 10C20 4.47715 15.5228 0 10 0C4.47715 0 0 4.47715 0 10C0 15.5228 4.47715 20 10 20Z" fill="#74CEC0"/>
<path d="M9.39534 10.0406L5.94534 11.9844L2.61877 9.99999L5.90002 8.10155L9.39534 10.0406ZM14.0625 8.01561L10.6047 9.95936L14.0938 11.9047L17.375 10.0062L14.0625 8.01561ZM9.60159 5.50155L6.32034 3.60468L6.25002 7.47968L9.66252 9.49686L9.60159 5.50155ZM13.75 12.5203L10.3375 10.5031L10.3985 14.4984L13.6797 16.3953L13.75 12.5203ZM13.6969 7.40624V3.60936L10.3125 5.49686L10.2703 9.45624L13.6969 7.40624ZM9.68752 14.5031L9.72971 10.5437L6.30315 12.5937V16.3906L9.68752 14.5031Z" fill="white"/>
</svg>
