<svg width="20" height="20" viewBox="0 0 20 20" fill="none" xmlns="http://www.w3.org/2000/svg">
<path d="M10 20C15.5228 20 20 15.5228 20 10C20 4.47715 15.5228 0 10 0C4.47715 0 0 4.47715 0 10C0 15.5228 4.47715 20 10 20Z" fill="#F97176"/>
<path d="M13.2093 14.925C10.4672 16.3922 6.7281 15.7156 5.10466 12.925C3.62028 10.3766 4.4281 6.79534 6.91247 5.18127C9.39685 3.56721 13.0218 4.29534 14.7406 6.66252C16.7453 9.4219 15.2437 13.5594 11.7078 13.8891C10.2203 14.0266 8.58279 13.3375 7.86404 11.9672C7.22341 10.7328 7.53122 8.93909 8.70154 8.12346C9.87185 7.30784 11.7656 7.45784 12.3593 8.90627C12.6109 9.5219 12.5156 10.361 12.0375 10.8485C11.6343 11.25 10.6968 11.4063 10.2609 10.9375C10.1047 10.7656 9.93435 10.4453 10.2375 10.3235C10.3562 10.2766 10.6593 10.4797 10.8015 10.4797C11.4562 10.4703 11.664 9.64377 11.3281 9.15784C10.9203 8.57034 10.0187 8.61409 9.50622 9.01252C8.88122 9.50002 8.8031 10.3078 9.07341 11.0125C9.59841 12.3735 11.3062 12.6813 12.4703 11.9031C13.6015 11.1453 13.7734 9.32502 13.2 8.17346C12.4187 6.59377 10.2593 6.12971 8.70154 6.69377C7.14372 7.25784 6.23903 8.76877 6.20153 10.3781C6.18879 11.0976 6.34803 11.8096 6.66601 12.4551C6.98398 13.1006 7.4515 13.6608 8.02966 14.0891C9.55154 15.2016 11.4375 14.925 13.2093 14.925Z" fill="#FEF5F5"/>
</svg>
