<svg width="20" height="20" viewBox="0 0 20 20" fill="none" xmlns="http://www.w3.org/2000/svg">
<path d="M10 20C15.5228 20 20 15.5228 20 10C20 4.47715 15.5228 0 10 0C4.47715 0 0 4.47715 0 10C0 15.5228 4.47715 20 10 20Z" fill="#C7B78B"/>
<path d="M14.8438 5.3125L16.4062 10.1562L14.375 12.6562L12.9688 10.4688L14.8438 5.3125ZM11.5625 15.7812L13.75 13.2812L12.1875 11.0938L7.34375 14.375L11.5625 15.7812ZM8.125 5.3125L3.75 10L3.90625 13.2812L6.25 14.0625L12.0312 10.1562L13.75 5.3125H8.125Z" fill="white"/>
</svg>
