<svg width="20" height="20" viewBox="0 0 20 20" fill="none" xmlns="http://www.w3.org/2000/svg">
<path d="M10 20C15.5228 20 20 15.5228 20 10C20 4.47715 15.5228 0 10 0C4.47715 0 0 4.47715 0 10C0 15.5228 4.47715 20 10 20Z" fill="#4D90D5"/>
<path d="M14.4531 11.875C14.4531 13.056 13.984 14.1887 13.1488 15.0238C12.3137 15.859 11.181 16.3281 10 16.3281C8.81896 16.3281 7.68629 15.859 6.85117 15.0238C6.01604 14.1887 5.54688 13.056 5.54688 11.875C5.54688 9.41563 9.14062 3.98438 10 3.98438C10.8594 3.98438 14.4531 9.41563 14.4531 11.875ZM10.5469 13.3594C9.92527 13.3594 9.32913 13.1124 8.88959 12.6729C8.45006 12.2334 8.20312 11.6372 8.20312 11.0156C8.20287 10.7117 8.26233 10.4107 8.37812 10.1297C7.99493 10.3832 7.68404 10.7318 7.47585 11.1414C7.26765 11.551 7.16926 12.0076 7.19028 12.4666C7.21131 12.9255 7.35103 13.3712 7.59581 13.7601C7.84058 14.1489 8.18203 14.4676 8.5868 14.685C8.99157 14.9025 9.44582 15.0112 9.90517 15.0005C10.3645 14.9899 10.8133 14.8603 11.2075 14.6244C11.6018 14.3885 11.9282 14.0544 12.1547 13.6546C12.3812 13.2549 12.5002 12.8032 12.5 12.3438C12.5 12.3328 12.5 12.3234 12.5 12.3125C12.2861 12.6346 11.9958 12.8987 11.655 13.0813C11.3142 13.264 10.9335 13.3595 10.5469 13.3594Z" fill="white"/>
</svg>
